<svg width="35" height="36" viewBox="0 0 35 36" fill="none" xmlns="http://www.w3.org/2000/svg">
<path d="M10.5357 35.6696C9.64286 35.6696 8.88393 35.3571 8.25893 34.7321C7.63393 34.1071 7.32143 33.3482 7.32143 32.4554C7.32143 31.5625 7.63393 30.8036 8.25893 30.1786C8.88393 29.5536 9.64286 29.2411 10.5357 29.2411C11.4286 29.2411 12.1875 29.5536 12.8125 30.1786C13.4375 30.8036 13.75 31.5625 13.75 32.4554C13.75 33.3482 13.4375 34.1071 12.8125 34.7321C12.1875 35.3571 11.4286 35.6696 10.5357 35.6696ZM28.3929 35.6696C27.5 35.6696 26.7411 35.3571 26.1161 34.7321C25.4911 34.1071 25.1786 33.3482 25.1786 32.4554C25.1786 31.5625 25.4911 30.8036 26.1161 30.1786C26.7411 29.5536 27.5 29.2411 28.3929 29.2411C29.2857 29.2411 30.0446 29.5536 30.6696 30.1786C31.2946 30.8036 31.6071 31.5625 31.6071 32.4554C31.6071 33.3482 31.2946 34.1071 30.6696 34.7321C30.0446 35.3571 29.2857 35.6696 28.3929 35.6696ZM8.21428 6.20536L13.125 16.3839H25.9821L31.5625 6.20536H8.21428ZM6.875 3.52679H33.1696C33.8542 3.52679 34.375 3.83929 34.7321 4.46429C35.0893 5.08929 35.0893 5.71429 34.7321 6.33929L28.7054 17.1875C28.3779 17.7529 27.9538 18.2069 27.433 18.5491C26.9122 18.8913 26.3393 19.0625 25.7143 19.0625H12.1875L9.6875 23.7054H31.6071V26.3839H10.0893C8.83928 26.3839 7.93899 25.9672 7.38839 25.1339C6.8378 24.3006 6.84524 23.3631 7.41071 22.3214L10.2679 17.0536L3.48214 2.67857H0V0H5.22321L6.875 3.52679ZM13.125 16.3839H25.9821H13.125Z" fill="#444444"/>
</svg>
