<svg width="31" height="33" viewBox="0 0 31 33" fill="none" xmlns="http://www.w3.org/2000/svg">
<path d="M15.4817 11.7294V7.03472H10.7489V4.74464H15.4817V0.0499878H17.7718V4.74464H22.4664V7.03472H17.7718V11.7294H15.4817ZM8.80229 32.0729C8.03893 32.0729 7.39007 31.8057 6.85572 31.2714C6.32137 30.737 6.0542 30.0882 6.0542 29.3248C6.0542 28.5614 6.32137 27.9126 6.85572 27.3782C7.39007 26.8439 8.03893 26.5767 8.80229 26.5767C9.56565 26.5767 10.2145 26.8439 10.7489 27.3782C11.2832 27.9126 11.5504 28.5614 11.5504 29.3248C11.5504 30.0882 11.2832 30.737 10.7489 31.2714C10.2145 31.8057 9.56565 32.0729 8.80229 32.0729ZM24.2221 32.0729C23.4588 32.0729 22.8099 31.8057 22.2756 31.2714C21.7412 30.737 21.474 30.0882 21.474 29.3248C21.474 28.5614 21.7412 27.9126 22.2756 27.3782C22.8099 26.8439 23.4588 26.5767 24.2221 26.5767C24.9855 26.5767 25.6343 26.8439 26.1687 27.3782C26.7031 27.9126 26.9702 28.5614 26.9702 29.3248C26.9702 30.0882 26.7031 30.737 26.1687 31.2714C25.6343 31.8057 24.9855 32.0729 24.2221 32.0729ZM8.80229 24.1721C7.73359 24.1721 6.95114 23.7396 6.45496 22.8744C5.95878 22.0093 5.96514 21.1314 6.47404 20.2408L8.80229 16.0042L3.0771 3.82861H0.0999985V1.53854H4.52748L11.016 15.4317H22.1611L28.1153 4.74464L30.1 5.81335L24.2603 16.3859C24.0313 16.8184 23.7196 17.1492 23.3252 17.3782C22.9308 17.6072 22.4664 17.7217 21.9321 17.7217H10.4817L8.11526 21.882H26.9702V24.1721H8.80229Z" fill="#444444"/>
</svg>
