<svg width="69" height="59" viewBox="0 0 69 59" fill="none" xmlns="http://www.w3.org/2000/svg">
<path d="M21.8125 37.5C21.0625 37.5 20.4062 37.2187 19.8437 36.6562C19.2812 36.0937 19 35.4375 19 34.6875V10.3125C19 9.5625 19.2812 8.90625 19.8437 8.34375C20.4062 7.78125 21.0625 7.5 21.8125 7.5H26.9688V7.03125C26.9688 5.0625 27.6484 3.39844 29.0078 2.03906C30.3672 0.679688 32.0313 0 34 0C35.9687 0 37.6328 0.679688 38.9922 2.03906C40.3516 3.39844 41.0312 5.0625 41.0312 7.03125V7.5H46.1875C46.9375 7.5 47.5937 7.78125 48.1562 8.34375C48.7187 8.90625 49 9.5625 49 10.3125V34.6875C49 35.4375 48.7187 36.0937 48.1562 36.6562C47.5937 37.2187 46.9375 37.5 46.1875 37.5H21.8125ZM21.8125 34.6875H46.1875V10.3125H41.0312V14.5312C41.0312 14.9375 40.8984 15.2734 40.6328 15.5391C40.3672 15.8047 40.0313 15.9375 39.625 15.9375C39.2187 15.9375 38.8828 15.8047 38.6172 15.5391C38.3516 15.2734 38.2188 14.9375 38.2188 14.5312V10.3125H29.7812V14.5312C29.7812 14.9375 29.6484 15.2734 29.3828 15.5391C29.1172 15.8047 28.7813 15.9375 28.375 15.9375C27.9687 15.9375 27.6328 15.8047 27.3672 15.5391C27.1016 15.2734 26.9688 14.9375 26.9688 14.5312V10.3125H21.8125V34.6875ZM29.7812 7.5H38.2188V7.03125C38.2188 5.84375 37.8125 4.84375 37 4.03125C36.1875 3.21875 35.1875 2.8125 34 2.8125C32.8125 2.8125 31.8125 3.21875 31 4.03125C30.1875 4.84375 29.7812 5.84375 29.7812 7.03125V7.5ZM21.8125 34.6875V10.3125V34.6875Z" fill="#FF0088"/>
<path d="M1.824 46.48C1.03467 46.1387 0.64 45.808 0.64 45.488C0.64 45.3173 0.709333 45.2373 0.848 45.248C1.04 45.248 1.25867 45.296 1.504 45.392C1.74933 45.4773 2 45.5467 2.256 45.6C3.13067 43.9467 4.12267 42.864 5.232 42.352C5.60533 42.1813 5.97867 42.0907 6.352 42.08C7.088 42.08 7.648 42.2613 8.032 42.624C8.42667 42.976 8.624 43.408 8.624 43.92C8.624 44.8373 8.128 45.5467 7.136 46.048C6.32533 46.4533 5.22133 46.704 3.824 46.8C3.32267 48.0373 3.072 49.3653 3.072 50.784C3.072 51.84 3.31733 52.4533 3.808 52.624C4.14933 52.7413 4.40533 52.7467 4.576 52.64C4.74667 52.5227 4.88 52.3733 4.976 52.192C5.072 52 5.12 51.7227 5.12 51.36C5.13067 50.9973 5.02933 50.6933 4.816 50.448C4.61333 50.192 4.416 49.9573 4.224 49.744C4.32 49.392 4.45867 49.0987 4.64 48.864C4.98133 48.4053 5.27467 48.176 5.52 48.176C5.76533 48.176 5.96267 48.2613 6.112 48.432C6.272 48.6027 6.4 48.816 6.496 49.072C6.592 49.328 6.66667 49.6053 6.72 49.904C6.784 50.2027 6.85333 50.48 6.928 50.736C7.00267 50.992 7.09333 51.2053 7.2 51.376C7.31733 51.5467 7.46667 51.632 7.648 51.632C7.84 51.632 8.01067 51.5627 8.16 51.424C8.30933 51.2747 8.44267 51.1147 8.56 50.944C8.67733 50.7733 8.784 50.6187 8.88 50.48C8.976 50.3307 9.072 50.256 9.168 50.256C9.27467 50.256 9.376 50.3413 9.472 50.512C9.57867 50.6827 9.632 50.8427 9.632 50.992C9.632 51.3333 9.46133 51.7387 9.12 52.208C8.78933 52.6773 8.36267 52.912 7.84 52.912C7.31733 52.9013 6.912 52.7893 6.624 52.576C6.44267 53.024 6.13333 53.3973 5.696 53.696C5.25867 53.9947 4.63467 54.144 3.824 54.144C3.024 54.144 2.336 53.936 1.76 53.52C1.06667 53.0187 0.72 52.24 0.72 51.184C0.72 49.68 1.088 48.112 1.824 46.48ZM6.864 44.208C6.85333 43.8347 6.71467 43.648 6.448 43.648C6.192 43.648 5.856 43.8453 5.44 44.24C5.024 44.6347 4.624 45.184 4.24 45.888C5.40267 45.6853 6.19733 45.328 6.624 44.816C6.77333 44.624 6.85333 44.4213 6.864 44.208ZM12.4736 52.256C13.3056 52.256 14.111 51.9253 14.8896 51.264C15.1776 51.0187 15.4123 50.7947 15.5936 50.592C15.775 50.3787 15.9136 50.272 16.0096 50.272C16.159 50.272 16.2336 50.4213 16.2336 50.72C16.2336 51.0187 16.1536 51.3547 15.9936 51.728C15.8336 52.0907 15.567 52.448 15.1936 52.8C14.2763 53.664 13.0176 54.096 11.4176 54.096C10.1483 54.096 9.28429 53.6373 8.82563 52.72C8.66563 52.4 8.58563 51.9413 8.58563 51.344C8.58563 50.7467 8.70296 50.128 8.93763 49.488C9.17229 48.8373 9.48163 48.2773 9.86563 47.808C10.2603 47.3387 10.7136 46.976 11.2256 46.72C11.7376 46.4533 12.2816 46.32 12.8576 46.32C13.4443 46.32 13.8923 46.464 14.2016 46.752C14.5216 47.04 14.6816 47.4133 14.6816 47.872C14.6816 48.3307 14.5643 48.7093 14.3296 49.008C14.1056 49.296 13.8123 49.5413 13.4496 49.744C13.087 49.936 12.6816 50.112 12.2336 50.272C11.7963 50.4213 11.3643 50.592 10.9376 50.784V51.184C10.9483 51.568 11.1083 51.84 11.4176 52C11.727 52.16 12.079 52.2453 12.4736 52.256ZM12.2016 47.744C11.647 47.744 11.263 48.3893 11.0496 49.68C11.2736 49.5307 11.4816 49.3973 11.6736 49.28C11.8763 49.1627 12.0523 49.0507 12.2016 48.944C12.5216 48.7093 12.687 48.4427 12.6976 48.144C12.6976 47.8773 12.5323 47.744 12.2016 47.744ZM19.0811 46.256C19.7958 46.2453 20.3291 46.3787 20.6811 46.656C21.0331 46.9227 21.2091 47.312 21.2091 47.824C21.2091 48.3253 21.0545 48.7573 20.7451 49.12C20.4465 49.472 20.0785 49.7227 19.6411 49.872C19.9505 50.192 20.2278 50.5173 20.4731 50.848C20.7291 51.1787 20.8571 51.5253 20.8571 51.888C20.8571 52.6027 20.5745 53.1573 20.0091 53.552C19.4438 53.936 18.6545 54.128 17.6411 54.128C16.6385 54.128 15.8865 53.9307 15.3851 53.536C14.8838 53.1307 14.6331 52.6773 14.6331 52.176C14.6331 51.664 14.7558 51.2 15.0011 50.784C15.2571 50.368 15.5291 50.16 15.8171 50.16C15.9878 50.16 16.1105 50.224 16.1851 50.352C16.2598 50.4693 16.3985 50.8213 16.6011 51.408C16.6758 51.6213 16.7985 51.824 16.9691 52.016C17.3638 52.4533 17.9878 52.672 18.8411 52.672C18.7131 52.2667 18.5051 51.92 18.2171 51.632C17.9398 51.3333 17.6625 51.0453 17.3851 50.768C17.1078 50.4907 16.8625 50.1973 16.6491 49.888C16.4358 49.568 16.3291 49.1947 16.3291 48.768C16.3291 48 16.6171 47.376 17.1931 46.896C17.7371 46.4693 18.3665 46.256 19.0811 46.256ZM19.0171 49.216C19.4438 48.7573 19.6571 48.3893 19.6571 48.112C19.6571 47.984 19.6091 47.872 19.5131 47.776C19.4278 47.6693 19.2998 47.616 19.1291 47.616C18.9585 47.616 18.7931 47.6373 18.6331 47.68C18.4838 47.7227 18.3611 47.7547 18.2651 47.776C18.2651 48.1813 18.5158 48.6613 19.0171 49.216ZM22.559 53.136C22.4417 52.848 22.3563 52.5173 22.303 52.144C22.2497 51.76 22.223 51.2267 22.223 50.544C22.223 49.8613 22.351 48.9387 22.607 47.776H21.887C21.759 47.776 21.695 47.7227 21.695 47.616C21.695 47.36 21.7163 47.152 21.759 46.992C21.8123 46.8213 21.9297 46.6293 22.111 46.416H22.495C22.6443 46.416 22.8043 46.4107 22.975 46.4C23.487 44.7573 24.0097 43.936 24.543 43.936C24.9697 43.9467 25.2683 44.2187 25.439 44.752C25.4817 44.9013 25.5297 45.0613 25.583 45.232L24.927 46.384C25.6737 46.4053 26.143 46.416 26.335 46.416C26.5377 46.416 26.6443 46.4373 26.655 46.48C26.6763 46.512 26.687 46.5653 26.687 46.64C26.687 46.832 26.639 47.072 26.543 47.36C26.4577 47.648 26.3563 47.7867 26.239 47.776L24.639 47.696C24.415 48.9973 24.303 50.0747 24.303 50.928C24.303 51.7813 24.4257 52.208 24.671 52.208C24.8737 52.208 25.2417 52.0427 25.775 51.712C26.3083 51.3707 26.6923 51.0453 26.927 50.736C27.1617 50.4267 27.3537 50.272 27.503 50.272C27.6523 50.272 27.727 50.4533 27.727 50.816C27.727 51.1787 27.599 51.552 27.343 51.936C27.087 52.3093 26.7617 52.656 26.367 52.976C25.983 53.2853 25.551 53.5413 25.071 53.744C24.6017 53.9467 24.191 54.048 23.839 54.048C23.487 54.048 23.215 53.968 23.023 53.808C22.8417 53.6373 22.687 53.4133 22.559 53.136ZM36.9874 46.256C37.702 46.2453 38.2354 46.3787 38.5874 46.656C38.9394 46.9227 39.1154 47.312 39.1154 47.824C39.1154 48.3253 38.9607 48.7573 38.6514 49.12C38.3527 49.472 37.9847 49.7227 37.5474 49.872C37.8567 50.192 38.134 50.5173 38.3794 50.848C38.6354 51.1787 38.7634 51.5253 38.7634 51.888C38.7634 52.6027 38.4807 53.1573 37.9154 53.552C37.35 53.936 36.5607 54.128 35.5474 54.128C34.5447 54.128 33.7927 53.9307 33.2914 53.536C32.79 53.1307 32.5394 52.6773 32.5394 52.176C32.5394 51.664 32.662 51.2 32.9074 50.784C33.1634 50.368 33.4354 50.16 33.7234 50.16C33.894 50.16 34.0167 50.224 34.0914 50.352C34.166 50.4693 34.3047 50.8213 34.5074 51.408C34.582 51.6213 34.7047 51.824 34.8754 52.016C35.27 52.4533 35.894 52.672 36.7474 52.672C36.6194 52.2667 36.4114 51.92 36.1234 51.632C35.846 51.3333 35.5687 51.0453 35.2914 50.768C35.014 50.4907 34.7687 50.1973 34.5554 49.888C34.342 49.568 34.2354 49.1947 34.2354 48.768C34.2354 48 34.5234 47.376 35.0994 46.896C35.6434 46.4693 36.2727 46.256 36.9874 46.256ZM36.9234 49.216C37.35 48.7573 37.5634 48.3893 37.5634 48.112C37.5634 47.984 37.5154 47.872 37.4194 47.776C37.334 47.6693 37.206 47.616 37.0354 47.616C36.8647 47.616 36.6994 47.6373 36.5394 47.68C36.39 47.7227 36.2674 47.7547 36.1714 47.776C36.1714 48.1813 36.422 48.6613 36.9234 49.216ZM40.4653 53.136C40.3479 52.848 40.2626 52.5173 40.2093 52.144C40.1559 51.76 40.1293 51.2267 40.1293 50.544C40.1293 49.8613 40.2573 48.9387 40.5133 47.776H39.7933C39.6653 47.776 39.6013 47.7227 39.6013 47.616C39.6013 47.36 39.6226 47.152 39.6653 46.992C39.7186 46.8213 39.8359 46.6293 40.0173 46.416H40.4013C40.5506 46.416 40.7106 46.4107 40.8813 46.4C41.3933 44.7573 41.9159 43.936 42.4493 43.936C42.8759 43.9467 43.1746 44.2187 43.3453 44.752C43.3879 44.9013 43.4359 45.0613 43.4893 45.232L42.8333 46.384C43.5799 46.4053 44.0493 46.416 44.2413 46.416C44.4439 46.416 44.5506 46.4373 44.5613 46.48C44.5826 46.512 44.5933 46.5653 44.5933 46.64C44.5933 46.832 44.5453 47.072 44.4493 47.36C44.3639 47.648 44.2626 47.7867 44.1453 47.776L42.5453 47.696C42.3213 48.9973 42.2093 50.0747 42.2093 50.928C42.2093 51.7813 42.3319 52.208 42.5773 52.208C42.7799 52.208 43.1479 52.0427 43.6813 51.712C44.2146 51.3707 44.5986 51.0453 44.8333 50.736C45.0679 50.4267 45.2599 50.272 45.4093 50.272C45.5586 50.272 45.6333 50.4533 45.6333 50.816C45.6333 51.1787 45.5053 51.552 45.2493 51.936C44.9933 52.3093 44.6679 52.656 44.2733 52.976C43.8893 53.2853 43.4573 53.5413 42.9773 53.744C42.5079 53.9467 42.0973 54.048 41.7453 54.048C41.3933 54.048 41.1213 53.968 40.9293 53.808C40.7479 53.6373 40.5933 53.4133 40.4653 53.136ZM51.3034 52.64C50.4607 53.632 49.4474 54.128 48.2634 54.128C47.09 54.128 46.21 53.8293 45.6234 53.232C45.0367 52.624 44.7487 51.872 44.7594 50.976C44.7487 49.7067 45.1487 48.6133 45.9594 47.696C46.77 46.7787 47.8314 46.32 49.1434 46.32C49.7407 46.32 50.2207 46.3947 50.5834 46.544C51.2127 46.8 51.5274 47.04 51.5274 47.264C51.5274 47.4347 51.0847 47.5253 50.1994 47.536C49.3247 47.536 48.5887 47.84 47.9914 48.448C47.4047 49.0453 47.1114 49.8027 47.1114 50.72C47.1114 51.2 47.25 51.6053 47.5274 51.936C47.8154 52.256 48.2154 52.416 48.7274 52.416C49.25 52.416 49.682 52.3093 50.0234 52.096C49.266 51.584 48.8874 50.8427 48.8874 49.872C48.8767 49.36 49.058 48.896 49.4314 48.48C49.8154 48.0533 50.3007 47.84 50.8874 47.84C51.4847 47.8293 51.9114 47.9893 52.1674 48.32C52.4234 48.6507 52.5514 49.0773 52.5514 49.6C52.5514 50.112 52.4287 50.656 52.1834 51.232H52.2794C52.7487 51.2213 53.154 51.056 53.4954 50.736C53.6234 50.608 53.73 50.496 53.8154 50.4C53.9114 50.304 54.0074 50.256 54.1034 50.256C54.2527 50.256 54.3274 50.432 54.3274 50.784C54.3274 51.4347 54.1354 51.9253 53.7514 52.256C53.3674 52.576 52.9407 52.736 52.4714 52.736C52.0127 52.736 51.6234 52.704 51.3034 52.64ZM51.1594 50.784C51.3407 50.4 51.4314 50.0267 51.4314 49.664C51.4314 49.3013 51.314 49.12 51.0794 49.12C50.9834 49.12 50.9034 49.1893 50.8394 49.328C50.7754 49.4667 50.7434 49.6 50.7434 49.728C50.7434 50.1547 50.882 50.5067 51.1594 50.784ZM55.8629 51.312L55.9589 53.264C55.9589 53.52 55.8255 53.7493 55.5589 53.952C55.2922 54.1547 54.9295 54.256 54.4709 54.256C54.2042 54.256 54.0175 54.1173 53.9109 53.84C53.8149 53.5627 53.7669 53.1573 53.7669 52.624C53.7669 51.504 53.8202 50.6293 53.9269 50C54.0442 49.36 54.2682 48.7147 54.5989 48.064C54.1082 47.5947 53.8629 47.1893 53.8629 46.848C53.8629 46.1333 54.2469 45.776 55.0149 45.776C55.4095 45.776 55.7562 45.984 56.0549 46.4C56.2682 46.688 56.4229 47.024 56.5189 47.408C56.6682 47.4613 56.8549 47.488 57.0789 47.488C57.3882 47.488 57.7455 47.3867 58.1509 47.184L58.5669 46.976C58.6949 46.912 58.8069 46.88 58.9029 46.88C59.2122 46.88 59.5215 47.3333 59.8309 48.24C59.7349 48.656 59.6282 49.056 59.5109 49.44C59.4042 49.824 59.2762 50.288 59.1269 50.832C58.9775 51.376 58.8975 51.744 58.8869 51.936C58.8869 52.1173 58.9455 52.208 59.0629 52.208C59.2229 52.208 59.4202 52.1067 59.6549 51.904C59.8895 51.7013 60.1242 51.4827 60.3589 51.248C60.5935 51.0027 60.8069 50.7787 60.9989 50.576C61.2015 50.3733 61.3402 50.272 61.4149 50.272C61.5642 50.272 61.6389 50.4533 61.6389 50.816C61.6389 51.552 61.3135 52.2773 60.6629 52.992C60.0229 53.7067 59.2869 54.0587 58.4549 54.048C57.9642 54.048 57.5962 53.8507 57.3509 53.456C57.1055 53.0613 56.9775 52.5813 56.9669 52.016C56.9669 50.896 57.2175 49.8347 57.7189 48.832C57.4842 48.928 57.2175 48.976 56.9189 48.976C56.6309 48.976 56.4229 48.9653 56.2949 48.944C56.1989 49.3493 56.1029 49.76 56.0069 50.176C55.9109 50.5813 55.8629 50.96 55.8629 51.312ZM64.5674 52.256C65.3994 52.256 66.2047 51.9253 66.9834 51.264C67.2714 51.0187 67.506 50.7947 67.6874 50.592C67.8687 50.3787 68.0074 50.272 68.1034 50.272C68.2527 50.272 68.3274 50.4213 68.3274 50.72C68.3274 51.0187 68.2474 51.3547 68.0874 51.728C67.9274 52.0907 67.6607 52.448 67.2874 52.8C66.37 53.664 65.1114 54.096 63.5114 54.096C62.242 54.096 61.378 53.6373 60.9194 52.72C60.7594 52.4 60.6794 51.9413 60.6794 51.344C60.6794 50.7467 60.7967 50.128 61.0314 49.488C61.266 48.8373 61.5754 48.2773 61.9594 47.808C62.354 47.3387 62.8074 46.976 63.3194 46.72C63.8314 46.4533 64.3754 46.32 64.9514 46.32C65.538 46.32 65.986 46.464 66.2954 46.752C66.6154 47.04 66.7754 47.4133 66.7754 47.872C66.7754 48.3307 66.658 48.7093 66.4234 49.008C66.1994 49.296 65.906 49.5413 65.5434 49.744C65.1807 49.936 64.7754 50.112 64.3274 50.272C63.89 50.4213 63.458 50.592 63.0314 50.784V51.184C63.042 51.568 63.202 51.84 63.5114 52C63.8207 52.16 64.1727 52.2453 64.5674 52.256ZM64.2954 47.744C63.7407 47.744 63.3567 48.3893 63.1434 49.68C63.3674 49.5307 63.5754 49.3973 63.7674 49.28C63.97 49.1627 64.146 49.0507 64.2954 48.944C64.6154 48.7093 64.7807 48.4427 64.7914 48.144C64.7914 47.8773 64.626 47.744 64.2954 47.744Z" fill="#FF0088"/>
</svg>
