<svg width="40" height="39" viewBox="0 0 40 39" fill="none" xmlns="http://www.w3.org/2000/svg">
<g clip-path="url(#clip0_12_12)">
<rect width="40" height="39" fill="white"/>
<rect x="0.5" y="0.5" width="39" height="38" rx="4.5" fill="white"/>
<rect x="0.5" y="0.5" width="39" height="38" rx="4.5" stroke="#444444"/>
<rect x="0.5" y="0.5" width="39" height="38" rx="4.5" stroke="black" stroke-opacity="0.2"/>
<circle cx="6.5" cy="7.5" r="2.5" fill="#444444"/>
<circle cx="24.5" cy="7.5" r="2.5" fill="#444444"/>
<circle cx="15.5" cy="7.5" r="2.5" fill="#444444"/>
<circle cx="33.5" cy="7.5" r="2.5" fill="#444444"/>
<circle cx="6.5" cy="15.5" r="2.5" fill="#444444"/>
<circle cx="24.5" cy="15.5" r="2.5" fill="#444444"/>
<circle cx="15.5" cy="15.5" r="2.5" fill="#444444"/>
<circle cx="33.5" cy="15.5" r="2.5" fill="#444444"/>
<circle cx="6.5" cy="23.5" r="2.5" fill="#444444"/>
<circle cx="24.5" cy="23.5" r="2.5" fill="#444444"/>
<circle cx="15.5" cy="23.5" r="2.5" fill="#444444"/>
<circle cx="33.5" cy="23.5" r="2.5" fill="#444444"/>
<circle cx="6.5" cy="31.5" r="2.5" fill="#444444"/>
<circle cx="24.5" cy="31.5" r="2.5" fill="#444444"/>
<circle cx="15.5" cy="31.5" r="2.5" fill="#444444"/>
<circle cx="33.5" cy="31.5" r="2.5" fill="#444444"/>
</g>
<defs>
<clipPath id="clip0_12_12">
<rect width="40" height="39" fill="white"/>
</clipPath>
</defs>
</svg>
