<svg width="30" height="30" viewBox="0 0 30 30" fill="none" xmlns="http://www.w3.org/2000/svg">
<path d="M15.6554 11.4607L14.0824 9.88764L16.8539 7.1161H10.0375V4.86891H16.8539L14.0824 2.09738L15.6554 0.524344L21.1236 5.99251L15.6554 11.4607ZM8.53932 29.9625C7.79026 29.9625 7.15356 29.7004 6.62921 29.176C6.10487 28.6517 5.8427 28.015 5.8427 27.2659C5.8427 26.5169 6.10487 25.8801 6.62921 25.3558C7.15356 24.8315 7.79026 24.5693 8.53932 24.5693C9.28839 24.5693 9.92509 24.8315 10.4494 25.3558C10.9738 25.8801 11.236 26.5169 11.236 27.2659C11.236 28.015 10.9738 28.6517 10.4494 29.176C9.92509 29.7004 9.28839 29.9625 8.53932 29.9625ZM23.6704 29.9625C22.9213 29.9625 22.2846 29.7004 21.7603 29.176C21.236 28.6517 20.9738 28.015 20.9738 27.2659C20.9738 26.5169 21.236 25.8801 21.7603 25.3558C22.2846 24.8315 22.9213 24.5693 23.6704 24.5693C24.4195 24.5693 25.0562 24.8315 25.5805 25.3558C26.1049 25.8801 26.367 26.5169 26.367 27.2659C26.367 28.015 26.1049 28.6517 25.5805 29.176C25.0562 29.7004 24.4195 29.9625 23.6704 29.9625ZM0 2.24719V0H4.34457L10.7116 13.633H21.4981L27.4906 3.14607H30L23.9326 14.4944C23.6579 14.9688 23.3021 15.3496 22.8652 15.6367C22.4282 15.9238 21.9476 16.0674 21.4232 16.0674H10.0749L7.97753 19.9625H26.367V22.2097H8.31461C7.36579 22.2097 6.64794 21.8352 6.16105 21.0861C5.67416 20.3371 5.64295 19.5755 6.06742 18.8015L8.46442 14.382L2.92135 2.24719H0Z" fill="#444444"/>
</svg>
